<svg width="64" height="64" viewBox="0 0 64 64" fill="none" xmlns="http://www.w3.org/2000/svg">
<g clip-path="url(#clip0)">
<path d="M56.9766 63.9575H7.02246C5.71387 63.9575 4.65332 62.897 4.65332 61.5884V23.3896H59.3462V61.5884C59.3462 62.897 58.2852 63.9575 56.9766 63.9575Z" fill="url(#paint0_linear)"/>
<path opacity="0.3" d="M4.65332 23.3896H59.3462V31.3384H4.65332V23.3896Z" fill="url(#paint1_linear)"/>
<path d="M64 15.103V24.9507C64 26.0024 63.1465 26.8545 62.0947 26.8545H1.90381C0.852051 26.8545 0 26.0024 0 24.9507V15.103C0 14.0513 0.852051 13.1992 1.90381 13.1992H62.0947C63.1465 13.1992 64 14.0513 64 15.103Z" fill="url(#paint2_linear)"/>
<path opacity="0.3" d="M29.8242 17.7266C29.4087 18.2104 29.001 18.7012 28.603 19.1973C27.1201 21.0425 25.7627 22.9761 24.5356 24.9829C24.1582 25.6001 23.7939 26.2236 23.4404 26.8545H10.4604C11.2187 25.1338 12.0503 23.4448 12.9512 21.7939C14.585 18.7988 16.4492 15.9248 18.5322 13.1992C19.0298 12.5483 19.5391 11.9053 20.061 11.272C20.3735 10.8901 20.6914 10.5137 21.0137 10.1387C22.1982 11.1592 23.3818 12.1787 24.5669 13.1992C24.7505 13.3564 24.9341 13.5156 25.1172 13.6733C26.5156 14.8774 27.9141 16.0811 29.312 17.2866C29.4834 17.4321 29.6533 17.5801 29.8242 17.7266Z" fill="#00BBB4"/>
<path opacity="0.3" d="M49.1909 26.8545H36.21C35.8579 26.2236 35.4922 25.6001 35.1147 24.9829C33.8877 22.9761 32.5288 21.0425 31.0474 19.1973C30.6479 18.7012 30.2402 18.2104 29.8242 17.7266C29.9956 17.5801 30.1655 17.4331 30.3369 17.2866C31.7363 16.0811 33.1348 14.876 34.5327 13.6733C34.7163 13.5156 34.8999 13.3564 35.0835 13.1992C36.2681 12.1787 37.4531 11.1592 38.6367 10.1387C38.959 10.5127 39.2769 10.8901 39.5894 11.271C40.1123 11.9053 40.6221 12.5483 41.1182 13.1992C43.2012 15.9248 45.0654 18.7988 46.7002 21.7939C47.6011 23.4448 48.4326 25.1338 49.1909 26.8545Z" fill="#00BBB4"/>
<path d="M31.999 17.7275C31.583 18.2109 31.1753 18.7017 30.7773 19.1978C29.2949 21.043 27.937 22.9766 26.71 24.9839C22.8145 31.3516 20.2271 38.4648 19.1357 45.9102C17.4956 43.7349 15.9819 41.3813 14.6201 38.8647C12.2246 40.4272 9.8833 42.2144 7.62891 44.2251C8.78662 36.3276 11.3374 28.7368 15.126 21.7944C17.1494 18.0845 19.5273 14.5596 22.2354 11.2725C22.5479 10.8906 22.8657 10.5146 23.188 10.1392C24.5562 11.3174 25.9233 12.4956 27.292 13.6738C28.6899 14.8779 30.0884 16.0815 31.4868 17.2871C31.6577 17.4326 31.8276 17.5806 31.999 17.7275Z" fill="#FFC73B"/>
<path d="M56.3701 44.2251C54.1157 42.2144 51.7744 40.4272 49.3789 38.8647C48.0171 41.3813 46.5034 43.7349 44.8633 45.9102C43.772 38.4648 41.1851 31.3516 37.2891 24.9839C36.062 22.9766 34.7031 21.043 33.2217 19.1978C32.8223 18.7017 32.4146 18.2109 31.999 17.7275C32.1699 17.5806 32.3398 17.4336 32.5112 17.2871C33.9106 16.0815 35.3091 14.8765 36.7075 13.6738C38.0757 12.4941 39.4443 11.3174 40.811 10.1392C41.1333 10.5132 41.4512 10.8906 41.7637 11.2715C44.4722 14.5586 46.8501 18.0835 48.8745 21.7944C52.6621 28.7368 55.2124 36.3276 56.3701 44.2251Z" fill="#FFC73B"/>
<path d="M26.9043 17.7275H37.0952V26.8545H26.9043V17.7275Z" fill="url(#paint3_linear)"/>
<path d="M48.8745 21.7944L37.2891 24.9839C36.062 22.9766 34.7031 21.043 33.2217 19.1978L32.5112 17.2871L31.999 15.9092L36.7075 13.6738L41.7637 11.2715C44.4722 14.5586 46.8501 18.0835 48.8745 21.7944Z" fill="url(#paint4_linear)"/>
<path d="M31.999 15.9092L31.4868 17.2871L30.7773 19.1978C29.2949 21.043 27.937 22.9766 26.71 24.9839L15.126 21.7944C17.1494 18.0845 19.5273 14.5596 22.2354 11.2725L27.292 13.6738L31.999 15.9092Z" fill="url(#paint5_linear)"/>
<path d="M50.4893 0.442894L31.9995 9.22366L35.5513 18.7759L55.2866 13.3438C57.8677 12.6333 59.2857 9.8633 58.3526 7.35403L56.7236 2.97414C55.791 0.464866 52.9077 -0.705544 50.4893 0.442894Z" fill="#FFC73B"/>
<path d="M13.5097 0.442894L31.9995 9.22366L28.4477 18.7759L8.71286 13.3438C6.13181 12.6333 4.71384 9.8633 5.64694 7.35403L7.27536 2.97414C8.20847 0.464866 11.0913 -0.705544 13.5097 0.442894Z" fill="#FFC73B"/>
<path d="M36.4146 13.0625C36.0786 13.0625 35.749 12.8965 35.5552 12.5923C35.252 12.1182 35.3902 11.4883 35.8643 11.185C36.0044 11.0957 39.3345 8.97655 43.1577 7.43017C48.6695 5.20067 52.3501 5.3203 54.0962 7.78564C54.4219 8.24511 54.313 8.88134 53.8535 9.20653C53.3941 9.53173 52.7583 9.42333 52.4331 8.96386C50.0659 5.62206 40.2236 10.8183 36.9624 12.9023C36.7925 13.0107 36.6026 13.0625 36.4146 13.0625Z" fill="#EFB025"/>
<path d="M27.4839 13.0625C27.2959 13.0625 27.106 13.0107 26.9361 12.9023C23.6748 10.8183 13.8325 5.62206 11.4654 8.96386C11.1397 9.42333 10.5039 9.53173 10.0445 9.20653C9.58547 8.88085 9.47658 8.24511 9.80227 7.78564C11.5484 5.3203 15.2285 5.20067 20.7407 7.43017C24.564 8.97607 27.8941 11.0957 28.0342 11.185C28.5083 11.4883 28.6465 12.1182 28.3438 12.5923C28.1489 12.8965 27.8198 13.0625 27.4839 13.0625Z" fill="#EFB025"/>
<path d="M34.8989 5.94043H29.1001C27.5132 5.94043 26.2266 7.22705 26.2266 8.81445V17.2388C26.2266 18.8262 27.5132 20.1128 29.1001 20.1128H34.8989C36.4858 20.1128 37.7725 18.8262 37.7725 17.2388V8.81445C37.7725 7.22705 36.4858 5.94043 34.8989 5.94043Z" fill="#FFC73B"/>
<path d="M26.9043 26.8545H37.0952V63.9575H26.9043V26.8545Z" fill="#FFC73B"/>
<path d="M26.9043 26.8545H37.0952V31.3384H26.9043V26.8545Z" fill="url(#paint6_linear)"/>
</g>
<defs>
<linearGradient id="paint0_linear" x1="20.134" y1="26.9403" x2="39.7957" y2="62.7307" gradientUnits="userSpaceOnUse">
<stop stop-color="#09B2AB"/>
<stop offset="1" stop-color="#0BDAD2"/>
</linearGradient>
<linearGradient id="paint1_linear" x1="31.9998" y1="23.3896" x2="31.9998" y2="31.3384" gradientUnits="userSpaceOnUse">
<stop stop-color="#09A49F"/>
<stop offset="1" stop-color="#00BBB4" stop-opacity="0"/>
</linearGradient>
<linearGradient id="paint2_linear" x1="18.1151" y1="14.3944" x2="20.533" y2="29.6952" gradientUnits="userSpaceOnUse">
<stop stop-color="#0BDAD2"/>
<stop offset="1" stop-color="#09B2AB"/>
</linearGradient>
<linearGradient id="paint3_linear" x1="31.9998" y1="17.7275" x2="31.9998" y2="26.8545" gradientUnits="userSpaceOnUse">
<stop stop-color="#EFB025"/>
<stop offset="1" stop-color="#FFC73B"/>
</linearGradient>
<linearGradient id="paint4_linear" x1="37" y1="14.5" x2="43.5" y2="23.5" gradientUnits="userSpaceOnUse">
<stop stop-color="#EFB025"/>
<stop offset="1" stop-color="#EFB025" stop-opacity="0"/>
</linearGradient>
<linearGradient id="paint5_linear" x1="25.5" y1="14.5" x2="21" y2="23" gradientUnits="userSpaceOnUse">
<stop stop-color="#EFB025"/>
<stop offset="1" stop-color="#EFB025" stop-opacity="0"/>
</linearGradient>
<linearGradient id="paint6_linear" x1="31.9998" y1="26.8545" x2="31.9998" y2="31.3384" gradientUnits="userSpaceOnUse">
<stop stop-color="#EFB025"/>
<stop offset="1" stop-color="#EFB025" stop-opacity="0"/>
</linearGradient>
<clipPath id="clip0">
<rect width="64" height="64" fill="white"/>
</clipPath>
</defs>
</svg>
