<svg width="64" height="64" viewBox="0 0 64 64" fill="none" xmlns="http://www.w3.org/2000/svg">
<path d="M44.6018 53.1711L53.9666 48.748C56.0317 47.7053 58.5507 48.4698 59.6883 50.4833L40.6535 62.7964C38.1011 63.9741 35.2371 64.2983 32.4862 63.7209L19.3581 60.0362C18.1502 59.6974 16.8573 59.8387 15.751 60.4311L13.0058 61.9001L13.3753 48.5104L13.4847 48.513C17.4076 45.7256 22.5597 45.365 26.8328 47.5792L27.6186 47.9862C28.8474 48.6224 30.2038 48.9731 31.5873 49.0107L39.3048 49.2238C41.7264 49.29 43.8462 50.8694 44.6018 53.1711Z" fill="url(#paint0_linear)"/>
<path d="M47.172 29.6815C47.172 37.6392 40.7207 44.0905 32.7629 44.0905C24.8052 44.0905 18.3545 37.6392 18.3545 29.6815C18.3545 21.7237 24.8052 15.2725 32.7629 15.2725C40.7207 15.2725 47.172 21.7237 47.172 29.6815Z" fill="url(#paint1_linear)"/>
<path d="M32.7623 28.5317C31.4246 28.5317 30.3397 27.4472 30.3397 26.1091C30.3397 24.7714 31.4246 23.6864 32.7623 23.6864C34.1005 23.6864 35.1849 24.7714 35.1849 26.1091C35.1849 26.6984 35.6627 27.1763 36.2521 27.1763C36.8414 27.1763 37.3193 26.6984 37.3193 26.1091C37.3167 23.9533 35.806 22.0934 33.6961 21.6489V20.6771C33.6961 20.0877 33.2182 19.6099 32.6289 19.6099C32.0395 19.6099 31.5617 20.0877 31.5617 20.6771V21.7141C29.3601 22.3149 27.9422 24.453 28.246 26.7151C28.5492 28.9777 30.4799 30.6666 32.7623 30.6661C34.09 30.6557 35.1791 31.7161 35.2036 33.0434C35.2281 34.3711 34.1786 35.4707 32.8514 35.5087C32.7315 35.4826 32.6086 35.478 32.4877 35.4951C31.262 35.3612 30.335 34.3232 30.3397 33.0903C30.3397 32.5009 29.8619 32.023 29.2725 32.023C28.6832 32.023 28.2053 32.5009 28.2053 33.0903C28.1985 35.1471 29.5758 36.9511 31.5617 37.4868V38.553C31.5617 39.1423 32.0395 39.6202 32.6289 39.6202C33.2182 39.6202 33.6961 39.1423 33.6961 38.553V37.5504C35.9816 37.072 37.5355 34.9428 37.2953 32.6202C37.0545 30.2977 35.0978 28.5322 32.7623 28.5317Z" fill="#E8A50F"/>
<path d="M44.8845 56.1864H44.8553L32.1701 55.8367C31.5807 55.8206 31.1164 55.3297 31.1326 54.7408C31.1488 54.1514 31.6396 53.6871 32.2285 53.7033L43.725 54.0201C43.6896 53.8461 43.6437 53.6746 43.588 53.5058C42.971 51.6329 41.2467 50.3474 39.2753 50.2911L31.5573 50.0774C30.0138 50.0336 28.4995 49.6423 27.1274 48.9336L26.3421 48.5271C22.426 46.4859 17.696 46.8168 14.1024 49.3833C13.622 49.7246 12.9555 49.6115 12.6142 49.1311C12.2729 48.6506 12.3859 47.9841 12.8664 47.6428C17.1108 44.612 22.698 44.2212 27.3233 46.6319L28.1092 47.0383C29.1951 47.5996 30.3937 47.9086 31.6157 47.944L39.3337 48.1571C41.1388 48.2056 42.8506 48.9695 44.0919 50.2812C45.3332 51.5923 46.0023 53.3437 45.9512 55.1483C45.9356 55.7268 45.4624 56.1869 44.884 56.1864H44.8845Z" fill="#F9AE95"/>
<path d="M32.7616 12.273C32.1722 12.273 31.6944 11.7952 31.6944 11.2058V1.06722C31.6944 0.477851 32.1722 0 32.7616 0C33.351 0 33.8289 0.477851 33.8289 1.06722V11.2058C33.8289 11.7952 33.351 12.273 32.7616 12.273Z" fill="url(#paint2_linear)"/>
<path d="M40.7665 12.2729C40.1771 12.2729 39.6992 11.795 39.6992 11.2056V6.40316C39.6992 5.81379 40.1771 5.33594 40.7665 5.33594C41.3559 5.33594 41.8337 5.81379 41.8337 6.40316V11.2056C41.8337 11.795 41.3559 12.2729 40.7665 12.2729Z" fill="url(#paint3_linear)"/>
<path d="M24.7577 12.2729C24.1683 12.2729 23.6904 11.795 23.6904 11.2056V6.40316C23.6904 5.81379 24.1683 5.33594 24.7577 5.33594C25.3471 5.33594 25.825 5.81379 25.825 6.40316V11.2056C25.825 11.795 25.3471 12.2729 24.7577 12.2729Z" fill="url(#paint4_linear)"/>
<path d="M13.0053 61.9004L12.9636 63.4074L4.50197 63.1755L5.01317 44.6045L13.4759 44.8369L13.3748 48.5107L13.0053 61.9004Z" fill="url(#paint5_linear)"/>
<defs>
<linearGradient id="paint0_linear" x1="36.3471" y1="46.1392" x2="36.3471" y2="63.9998" gradientUnits="userSpaceOnUse">
<stop stop-color="#FDD5BF"/>
<stop offset="1" stop-color="#FBB58E"/>
</linearGradient>
<linearGradient id="paint1_linear" x1="24.4821" y1="21.4002" x2="48.763" y2="45.6805" gradientUnits="userSpaceOnUse">
<stop stop-color="#FFDA45"/>
<stop offset="1" stop-color="#FFA425"/>
</linearGradient>
<linearGradient id="paint2_linear" x1="32.1482" y1="2.60968" x2="35.6395" y2="3.21688" gradientUnits="userSpaceOnUse">
<stop stop-color="#FFDA45"/>
<stop offset="1" stop-color="#FFA425"/>
</linearGradient>
<linearGradient id="paint3_linear" x1="40.1531" y1="6.81097" x2="43.4389" y2="7.82202" gradientUnits="userSpaceOnUse">
<stop stop-color="#FFDA45"/>
<stop offset="1" stop-color="#FFA425"/>
</linearGradient>
<linearGradient id="paint4_linear" x1="24.1443" y1="6.81097" x2="27.4301" y2="7.82202" gradientUnits="userSpaceOnUse">
<stop stop-color="#FFDA45"/>
<stop offset="1" stop-color="#FFA425"/>
</linearGradient>
<linearGradient id="paint5_linear" x1="9" y1="45" x2="17.8016" y2="55.8794" gradientUnits="userSpaceOnUse">
<stop stop-color="#0BDAD2"/>
<stop offset="1" stop-color="#09AAA4"/>
</linearGradient>
</defs>
</svg>
