<?xml version="1.0" encoding="UTF-8"?>
<svg version="1.1" xmlns="http://www.w3.org/2000/svg" width="192" height="148">
<path d="M0 0 C3.10163943 5.39915013 5.00302576 10.86576708 6.75 16.8125 C6.97260498 17.56587646 7.19520996 18.31925293 7.42456055 19.09545898 C8.29882961 22.14974143 9 24.80727834 9 28 C9.58007812 27.95359375 10.16015625 27.9071875 10.7578125 27.859375 C14.97364884 27.66458388 17.55233275 27.78837548 21.4375 29.625 C24.73394828 32.68024475 25.78176422 35.46112461 26.16876221 39.96331787 C26.23056579 42.20513775 26.22505181 44.43722781 26.1953125 46.6796875 C26.1924826 47.49245148 26.18965271 48.30521545 26.18673706 49.14260864 C26.17560619 51.72022675 26.15051515 54.29748819 26.125 56.875 C26.11496101 58.63020329 26.10583677 60.38541206 26.09765625 62.140625 C26.07569015 66.42721926 26.04120978 70.7135493 26 75 C27.485 75.495 27.485 75.495 29 76 C29.05790353 79.29159316 29.09356261 82.58305603 29.125 85.875 C29.14175781 86.81214844 29.15851563 87.74929687 29.17578125 88.71484375 C29.18222656 89.61074219 29.18867188 90.50664063 29.1953125 91.4296875 C29.20578613 92.25710449 29.21625977 93.08452148 29.22705078 93.93701172 C29 96 29 96 27 98 C26.69546499 100.09730154 26.69546499 100.09730154 26.7265625 102.5078125 C26.7059375 103.41273437 26.6853125 104.31765625 26.6640625 105.25 C26.63834046 107.14314219 26.61992256 109.03639995 26.609375 110.9296875 C26.46025004 116.79526925 25.98800708 122.3976206 22 127 C16.78510224 130.29906103 12.47641824 130.42954509 6.50976562 130.38818359 C5.1037635 130.39606903 5.1037635 130.39606903 3.6693573 130.40411377 C0.58148365 130.41728073 -2.50587141 130.40858724 -5.59375 130.3984375 C-7.74556578 130.40045918 -9.8973809 130.4033714 -12.04919434 130.40713501 C-16.55483536 130.41155389 -21.06029774 130.4051412 -25.56591797 130.39111328 C-31.33622204 130.37402181 -37.10610746 130.3838653 -42.87639618 130.40183067 C-47.31853378 130.41268018 -51.76057241 130.40921677 -56.20271301 130.4014473 C-58.33014475 130.39944853 -60.45758553 130.4018932 -62.58500671 130.40888596 C-65.56016788 130.41651947 -68.53465458 130.40486924 -71.50976562 130.38818359 C-72.38578934 130.39425629 -73.26181305 130.40032898 -74.16438293 130.40658569 C-79.14289815 130.3549576 -82.82799054 130.00431644 -87 127 C-90.88348595 121.77916906 -91.58468445 117.78126308 -91.51757812 111.39013672 C-91.5245874 110.55833893 -91.53159668 109.72654114 -91.53881836 108.86953735 C-91.55632389 106.13924085 -91.5448046 103.40999324 -91.53125 100.6796875 C-91.53394655 98.77352704 -91.53783033 96.86736792 -91.54284668 94.96121216 C-91.54873119 90.97514694 -91.54021064 86.98944127 -91.52148438 83.00341797 C-91.4986644 77.8976534 -91.51184379 72.79272853 -91.53577423 67.68699455 C-91.55023406 63.7544218 -91.5456259 59.82204792 -91.53526306 55.88946915 C-91.5325979 54.00682602 -91.53585814 52.12416474 -91.54518127 50.24154282 C-91.55535341 47.61090025 -91.5398386 44.98161574 -91.51757812 42.35107422 C-91.52567505 41.5758844 -91.53377197 40.80069458 -91.54211426 40.00201416 C-91.48400028 36.29045112 -91.11646572 34.18208182 -89.0970459 31.02493286 C-86.34687319 28.36933286 -84.46746648 28.19229784 -80.8046875 27.75 C-80.20914063 27.5025 -79.61359375 27.255 -79 27 C-78.7421875 26.20722656 -78.484375 25.41445313 -78.21875 24.59765625 C-77 22 -77 22 -73.7265625 20.55859375 C-72.36493399 20.16512254 -70.99715936 19.79250772 -69.625 19.4375 C-68.16245814 19.02189558 -66.70022027 18.60522002 -65.23828125 18.1875 C-64.51592285 17.98769531 -63.79356445 17.78789062 -63.04931641 17.58203125 C-60.27098433 16.79295052 -57.54434407 15.8737143 -54.8125 14.9375 C-43.98407319 11.2888543 -33.01301763 8.06866011 -22.04931641 4.85302734 C-20.66798186 4.44655888 -19.2874602 4.03731893 -17.90771484 3.62548828 C-15.87782261 3.01989822 -13.84552363 2.42310561 -11.8125 1.828125 C-10.62269531 1.4765332 -9.43289062 1.12494141 -8.20703125 0.76269531 C-5.31671758 0.07532169 -2.95054442 -0.16252999 0 0 Z " fill="#A57C52" transform="translate(127,9)"/>
<path d="M0 0 C3.10163943 5.39915013 5.00302576 10.86576708 6.75 16.8125 C6.97260498 17.56587646 7.19520996 18.31925293 7.42456055 19.09545898 C8.29882961 22.14974143 9 24.80727834 9 28 C9.58007812 27.95359375 10.16015625 27.9071875 10.7578125 27.859375 C16.38266961 27.59948061 19.58525201 28.13709551 24 32 C26.63733873 39.91201618 25 48.66000266 25 57 C-12.95 57 -50.9 57 -90 57 C-90 36 -90 36 -87 29 C-85.02734375 28.0546875 -85.02734375 28.0546875 -82.9375 27.875 C-80.84372035 27.77105754 -80.84372035 27.77105754 -79 27 C-78.74089844 26.20980469 -78.48179688 25.41960938 -78.21484375 24.60546875 C-77 22 -77 22 -73.7265625 20.55859375 C-72.36493399 20.16512254 -70.99715936 19.79250772 -69.625 19.4375 C-68.16245814 19.02189558 -66.70022027 18.60522002 -65.23828125 18.1875 C-64.51592285 17.98769531 -63.79356445 17.78789062 -63.04931641 17.58203125 C-60.27098433 16.79295052 -57.54434407 15.8737143 -54.8125 14.9375 C-43.98407319 11.2888543 -33.01301763 8.06866011 -22.04931641 4.85302734 C-20.66798186 4.44655888 -19.2874602 4.03731893 -17.90771484 3.62548828 C-15.87782261 3.01989822 -13.84552363 2.42310561 -11.8125 1.828125 C-10.62269531 1.4765332 -9.43289062 1.12494141 -8.20703125 0.76269531 C-5.31671758 0.07532169 -2.95054442 -0.16252999 0 0 Z " fill="#A87F57" transform="translate(127,9)"/>
<path d="M0 0 C0 3 0 3 -1 6 C-1.33 12.93 -1.66 19.86 -2 27 C35.95 27 73.9 27 113 27 C113 20.73 113 14.46 113 8 C113.33 8 113.66 8 114 8 C114 20.21 114 32.42 114 45 C115.485 45.495 115.485 45.495 117 46 C117.05790353 49.29159316 117.09356261 52.58305603 117.125 55.875 C117.14175781 56.81214844 117.15851563 57.74929687 117.17578125 58.71484375 C117.18222656 59.61074219 117.18867188 60.50664063 117.1953125 61.4296875 C117.20578613 62.25710449 117.21625977 63.08452148 117.22705078 63.93701172 C117 66 117 66 115 68 C114.69546499 70.09730154 114.69546499 70.09730154 114.7265625 72.5078125 C114.7059375 73.41273437 114.6853125 74.31765625 114.6640625 75.25 C114.63834046 77.14314219 114.61992256 79.03639995 114.609375 80.9296875 C114.46025004 86.79526925 113.98800708 92.3976206 110 97 C104.78510224 100.29906103 100.47641824 100.42954509 94.50976562 100.38818359 C93.57243088 100.39344055 92.63509613 100.39869751 91.6693573 100.40411377 C88.58148365 100.41728073 85.49412859 100.40858724 82.40625 100.3984375 C80.25443422 100.40045918 78.1026191 100.4033714 75.95080566 100.40713501 C71.44516464 100.41155389 66.93970226 100.4051412 62.43408203 100.39111328 C56.66377796 100.37402181 50.89389254 100.3838653 45.12360382 100.40183067 C40.68146622 100.41268018 36.23942759 100.40921677 31.79728699 100.4014473 C29.66985525 100.39944853 27.54241447 100.4018932 25.41499329 100.40888596 C22.43983212 100.41651947 19.46534542 100.40486924 16.49023438 100.38818359 C15.61421066 100.39425629 14.73818695 100.40032898 13.83561707 100.40658569 C8.85710185 100.3549576 5.17200946 100.00431644 1 97 C-2.89176889 91.77189487 -3.5817935 87.7750227 -3.50170898 81.37426758 C-3.50711197 80.54086349 -3.51251495 79.70745941 -3.51808167 78.84880066 C-3.53051706 76.11367508 -3.51411724 73.37961255 -3.49609375 70.64453125 C-3.49624882 68.73597661 -3.49773904 66.82742166 -3.50050354 64.91886902 C-3.50188505 60.92859902 -3.48936746 56.93868956 -3.46655273 52.94848633 C-3.43811098 47.83376141 -3.44092442 42.71963261 -3.45364285 37.60486317 C-3.46059494 33.66805423 -3.45281707 29.73138323 -3.44038582 25.7945919 C-3.43587082 23.90833757 -3.43553494 22.02206843 -3.43945122 20.13581276 C-3.4423603 17.50274856 -3.42587333 14.87050884 -3.40405273 12.23754883 C-3.40855438 11.45876373 -3.41305603 10.67997864 -3.41769409 9.87759399 C-3.35947167 5.65109614 -3.0377667 3.05920258 0 0 Z M-2 33 C-2 49.5 -2 66 -2 83 C35.95 83 73.9 83 113 83 C113 77.72 113 72.44 113 67 C111.18113281 66.96261719 109.36226563 66.92523438 107.48828125 66.88671875 C105.0963336 66.82105744 102.70440744 66.75461016 100.3125 66.6875 C99.11431641 66.66494141 97.91613281 66.64238281 96.68164062 66.61914062 C94.94624023 66.5659668 94.94624023 66.5659668 93.17578125 66.51171875 C92.11270752 66.48553467 91.04963379 66.45935059 89.9543457 66.43237305 C86.60209334 65.94176575 84.71205011 65.00527879 82 63 C79.77640731 59.66461097 79.76809488 58.8905952 80.125 55.0625 C80.18945312 54.20785156 80.25390625 53.35320312 80.3203125 52.47265625 C81.2102063 49.23528397 82.37835956 48.08816394 85 46 C88.02441406 45.45410156 88.02441406 45.45410156 91.515625 45.390625 C93.39121094 45.34228516 93.39121094 45.34228516 95.3046875 45.29296875 C97.25761719 45.27169922 97.25761719 45.27169922 99.25 45.25 C100.56742187 45.22035156 101.88484375 45.19070312 103.2421875 45.16015625 C106.49446134 45.08945464 109.74723492 45.0424643 113 45 C113 41.04 113 37.08 113 33 C75.05 33 37.1 33 -2 33 Z " fill="#CAA37A" transform="translate(39,39)"/>
<path d="M0 0 C14.02962267 -0.04670107 28.05923331 -0.08184663 42.08891773 -0.10362434 C48.60300703 -0.11407495 55.11704421 -0.12825746 61.63110352 -0.15087891 C67.91397809 -0.17256172 74.19680244 -0.184559 80.47971153 -0.18975449 C82.88036579 -0.19345845 85.2810172 -0.20069106 87.68165016 -0.21146011 C91.03628164 -0.22591431 94.39070388 -0.22798048 97.74536133 -0.22705078 C98.74445526 -0.23424133 99.74354919 -0.24143188 100.7729187 -0.24884033 C101.68577133 -0.246091 102.59862396 -0.24334167 103.53913879 -0.24050903 C104.33280255 -0.24235262 105.12646631 -0.24419621 105.94418049 -0.24609566 C108 0 108 0 111 2 C111 3.32 111 4.64 111 6 C110.34 6.33 109.68 6.66 109 7 C109 7.66 109 8.32 109 9 C106.15398157 10.60940428 104.11992907 11.24975002 100.85667419 11.24723816 C99.63067001 11.25352989 99.63067001 11.25352989 98.37989807 11.25994873 C97.04800697 11.25151947 97.04800697 11.25151947 95.68920898 11.24291992 C94.27641663 11.24576744 94.27641663 11.24576744 92.83508301 11.24867249 C89.7220019 11.25237701 86.60915412 11.24168099 83.49609375 11.23046875 C81.33423388 11.22927671 79.17237349 11.22882384 77.01051331 11.2290802 C72.48036455 11.22751592 67.95029488 11.21922996 63.42016602 11.20581055 C57.60703371 11.1888107 51.79398826 11.18499654 45.98083401 11.18575573 C41.51739164 11.18548411 37.05396834 11.1800043 32.5905323 11.17275429 C30.44666755 11.16956754 28.30280063 11.1676002 26.15893364 11.16686058 C23.16638363 11.16469768 20.17392659 11.15595471 17.18139648 11.14526367 C16.29144485 11.14571686 15.40149323 11.14617004 14.48457336 11.14663696 C13.67005707 11.14237198 12.85554077 11.13810699 12.01634216 11.13371277 C10.95531611 11.131199 10.95531611 11.131199 9.87285519 11.12863445 C8 11 8 11 5 10 C4.31867549 8.33927151 3.65257873 6.672233 3 5 C2.01 4.34 1.02 3.68 0 3 C0 2.01 0 1.02 0 0 Z " fill="#A88159" transform="translate(38,128)"/>
<path d="M0 0 C0.33 0 0.66 0 1 0 C2.31313131 9.27272727 2.31313131 9.27272727 1 14 C0.7215625 15.3921875 0.7215625 15.3921875 0.4375 16.8125 C0.293125 17.534375 0.14875 18.25625 0 19 C-0.33 19 -0.66 19 -1 19 C-1.495 16.03 -1.495 16.03 -2 13 C-7.45552093 11.49973174 -11.06672014 12.6216646 -16 15 C-17.41577477 16.18424326 -17.41577477 16.18424326 -17.0625 19.5625 C-17.041875 20.696875 -17.02125 21.83125 -17 23 C-14.69 23 -12.38 23 -10 23 C-10 22.34 -10 21.68 -10 21 C-8.02 21 -6.04 21 -4 21 C-5.32 21.66 -6.64 22.32 -8 23 C-5.69 23.33 -3.38 23.66 -1 24 C-1 24.66 -1 25.32 -1 26 C0.65 26.66 2.3 27.32 4 28 C4 28.33 4 28.66 4 29 C-8.35191641 29.0231325 -20.7038277 29.04091974 -33.05576134 29.05181217 C-38.79076272 29.057039 -44.52574932 29.06413305 -50.26074219 29.07543945 C-55.79148123 29.08627539 -61.32220603 29.09227835 -66.85295486 29.09487724 C-68.96694793 29.09673021 -71.08094019 29.10034838 -73.19492722 29.10573006 C-76.14738422 29.11294983 -79.09978174 29.11399054 -82.05224609 29.11352539 C-83.37394051 29.1189183 -83.37394051 29.1189183 -84.72233582 29.12442017 C-90.77189568 29.11405216 -90.77189568 29.11405216 -93 28 C-92.69611836 25.06247746 -92.19330344 24.15919107 -89.875 22.25 C-86.40721317 20.7422666 -83.74329002 20.77980647 -80 21 C-79.67 22.32 -79.34 23.64 -79 25 C-68.60584967 23.91766478 -59.22425196 21.01037761 -49.34619141 17.75830078 C-45.89658373 16.64337035 -42.42068943 15.62910118 -38.9375 14.625 C-33.7042848 13.11356524 -28.49518586 11.53807892 -23.296875 9.91015625 C-22.12390869 9.54390137 -20.95094238 9.17764648 -19.74243164 8.80029297 C-17.40419731 8.06836027 -15.0673953 7.33183332 -12.73217773 6.59033203 C-11.65911377 6.25501465 -10.5860498 5.91969727 -9.48046875 5.57421875 C-8.52035889 5.27088623 -7.56024902 4.96755371 -6.57104492 4.6550293 C-4 4 -4 4 0 4 C0 2.68 0 1.36 0 0 Z " fill="#4D95A9" transform="translate(132,23)"/>
<path d="M0 0 C0.33 0 0.66 0 1 0 C1 12.21 1 24.42 1 37 C1.99 37.33 2.98 37.66 4 38 C4.05790353 41.29159316 4.09356261 44.58305603 4.125 47.875 C4.14175781 48.81214844 4.15851563 49.74929687 4.17578125 50.71484375 C4.18544922 52.05869141 4.18544922 52.05869141 4.1953125 53.4296875 C4.21102295 54.67081299 4.21102295 54.67081299 4.22705078 55.93701172 C4 58 4 58 2 60 C1.62995706 62.22658154 1.62995706 62.22658154 1.5859375 64.7890625 C1.54726562 65.73007813 1.50859375 66.67109375 1.46875 67.640625 C1.42234375 69.11789063 1.42234375 69.11789063 1.375 70.625 C1.31699219 72.11386719 1.31699219 72.11386719 1.2578125 73.6328125 C1.1633686 76.08835385 1.07780125 78.5438841 1 81 C0.67 81 0.34 81 0 81 C0 73.74 0 66.48 0 59 C-1.81886719 59.03480469 -3.63773438 59.06960937 -5.51171875 59.10546875 C-7.9036366 59.13360896 -10.29556443 59.16090887 -12.6875 59.1875 C-13.88568359 59.21263672 -15.08386719 59.23777344 -16.31835938 59.26367188 C-17.47529297 59.27333984 -18.63222656 59.28300781 -19.82421875 59.29296875 C-20.88729248 59.3086792 -21.95036621 59.32438965 -23.0456543 59.34057617 C-27.27990637 58.85245274 -29.88702756 57.15374945 -32.8125 54.12109375 C-34.27843942 51.5026559 -34.29278299 50.03150254 -34 47.0625 C-33.938125 46.22847656 -33.87625 45.39445312 -33.8125 44.53515625 C-32.66442092 40.95292874 -30.88161078 39.38786612 -28 37 C-24.86206055 36.43237305 -24.86206055 36.43237305 -21.38671875 36.51171875 C-20.26225342 36.52420654 -19.13778809 36.53669434 -17.97924805 36.54956055 C-16.56297119 36.59508057 -15.14669434 36.64060059 -13.6875 36.6875 C-6.9121875 36.8421875 -6.9121875 36.8421875 0 37 C0 24.79 0 12.58 0 0 Z " fill="#C59B6D" transform="translate(152,47)"/>
<path d="M0 0 C1.9375 1.8125 1.9375 1.8125 3 4 C3 5.32 3 6.64 3 8 C1.97865967 8.30180176 0.95731934 8.60360352 -0.0949707 8.91455078 C-22.56702649 15.50961692 -22.56702649 15.50961692 -44.9375 22.4375 C-46.99416154 23.09175599 -49.05098103 23.7455116 -51.10791016 24.39892578 C-52.39440572 24.80761637 -53.6805256 25.21749105 -54.96630859 25.62841797 C-62.19142536 27.91507614 -68.40370691 29.52388228 -76 29 C-77.25664978 26.09399739 -78 24.20395416 -78 21 C-64.66072021 16.45489886 -51.3357398 11.9316065 -37.74682617 8.18481445 C-33.07724448 6.89426746 -28.44909572 5.52408059 -23.8359375 4.04296875 C-22.28277832 3.54917725 -22.28277832 3.54917725 -20.69824219 3.04541016 C-18.7028649 2.40723182 -16.7110404 1.75779553 -14.72363281 1.09521484 C-9.34992125 -0.61165017 -5.49961951 -1.49659395 0 0 Z " fill="#1A4B5A" transform="translate(129,19)"/>
<path d="M0 0 C2.53309233 4.64203897 4.46515599 8.65155992 5 14 C4.566875 13.505 4.13375 13.01 3.6875 12.5 C2.00259517 10.66781808 2.00259517 10.66781808 -1 11 C-1 10.34 -1 9.68 -1 9 C-13.31195893 12.35399902 -25.58569891 15.72798781 -37.66040039 19.86523438 C-44.05223625 22.04877624 -50.50714444 23.96042521 -56.99609375 25.83203125 C-61.84585193 27.23322858 -66.65338922 28.7611487 -71.4609375 30.30078125 C-74 31 -74 31 -77 31 C-77.66 29.02 -78.32 27.04 -79 25 C-75.72117782 21.02516185 -72.26653799 19.87239574 -67.4375 18.625 C-65.88227175 18.1959658 -64.32760086 17.76490708 -62.7734375 17.33203125 C-61.97518555 17.11240723 -61.17693359 16.8927832 -60.35449219 16.66650391 C-56.72730318 15.63972809 -53.14859038 14.47316671 -49.5625 13.3125 C-40.88964879 10.54563146 -32.17635853 7.91356406 -23.45089722 5.31820679 C-21.9074803 4.85820921 -20.36476564 4.39584838 -18.82278442 3.93106079 C-16.63640614 3.27281002 -14.44753158 2.62360016 -12.2578125 1.9765625 C-11.60019424 1.77686356 -10.94257599 1.57716461 -10.26502991 1.37141418 C-6.74914943 0.34414799 -3.66424407 -0.22120109 0 0 Z " fill="#549DB2" transform="translate(127,9)"/>
<path d="M0 0 C37.95 0 75.9 0 115 0 C115 1.98 115 3.96 115 6 C77.05 6 39.1 6 0 6 C0 4.02 0 2.04 0 0 Z " fill="#C49A6B" transform="translate(37,66)"/>
<path d="M0 0 C0.33 1.32 0.66 2.64 1 4 C1.96608688 3.99333817 2.93217377 3.98667633 3.92753601 3.97981262 C13.03523557 3.91897828 22.14289386 3.87401621 31.25075054 3.84456348 C35.93312236 3.82891246 40.61533006 3.80768444 45.29760742 3.77368164 C49.81689376 3.74106814 54.33602231 3.72314275 58.85541725 3.71536827 C60.57899268 3.70982834 62.30255954 3.69901016 64.02606773 3.68280983 C66.4416401 3.66100887 68.85656176 3.65803415 71.2722168 3.65942383 C71.98359802 3.648638 72.69497925 3.63785217 73.42791748 3.6267395 C77.77823302 3.6537921 80.52602979 4.34551536 84 7 C84 7.33 84 7.66 84 8 C71.64808359 8.0231325 59.2961723 8.04091974 46.94423866 8.05181217 C41.20923728 8.057039 35.47425068 8.06413305 29.73925781 8.07543945 C24.20851877 8.08627539 18.67779397 8.09227835 13.14704514 8.09487724 C11.03305207 8.09673021 8.91905981 8.10034838 6.80507278 8.10573006 C3.85261578 8.11294983 0.90021826 8.11399054 -2.05224609 8.11352539 C-3.37394051 8.1189183 -3.37394051 8.1189183 -4.72233582 8.12442017 C-10.77189568 8.11405216 -10.77189568 8.11405216 -13 7 C-12.69611836 4.06247746 -12.19330344 3.15919107 -9.875 1.25 C-6.40721317 -0.2577334 -3.74329002 -0.22019353 0 0 Z " fill="#F2F0EC" transform="translate(52,44)"/>
<path d="M0 0 C2.53128344 3.79692515 2.68487824 7.03950336 3.2421875 11.50390625 C3.7421001 14.13891109 3.7421001 14.13891109 5.9609375 15.21484375 C6.63382813 15.47394531 7.30671875 15.73304687 8 16 C11 19.42857143 11 19.42857143 11 22 C1.19156581 21.38029501 1.19156581 21.38029501 -3 18 C-3 17.34 -3 16.68 -3 16 C-5.64 16 -8.28 16 -11 16 C-10.67 15.34 -10.34 14.68 -10 14 C-10.66 13.67 -11.32 13.34 -12 13 C-12 13.66 -12 14.32 -12 15 C-14.31 15 -16.62 15 -19 15 C-20.32904884 8.59640103 -20.32904884 8.59640103 -19 6.1875 C-15.03180644 3.83138508 -11.28056775 2.97583834 -6.6875 3.0625 C-4 4 -4 4 -2.625 6.5625 C-2.41875 7.366875 -2.2125 8.17125 -2 9 C-2.04125 7.88625 -2.0825 6.7725 -2.125 5.625 C-2 2 -2 2 0 0 Z " fill="#559AAB" transform="translate(134,31)"/>
<path d="M0 0 C-1.98 0.33 -3.96 0.66 -6 1 C-6 1.99 -6 2.98 -6 4 C-0.555 3.01 -0.555 3.01 5 2 C4.67 2.66 4.34 3.32 4 4 C3.34 4 2.68 4 2 4 C1.67 5.32 1.34 6.64 1 8 C2.65 7.67 4.3 7.34 6 7 C5.67 7.66 5.34 8.32 5 9 C10.445 9.495 10.445 9.495 16 10 C16 10.33 16 10.66 16 11 C-2.48 11 -20.96 11 -40 11 C-37.1805173 9.59025865 -34.85670093 8.54972865 -31.91015625 7.6328125 C-31.13164307 7.38861572 -30.35312988 7.14441895 -29.55102539 6.89282227 C-28.72981201 6.63944092 -27.90859863 6.38605957 -27.0625 6.125 C-25.79684204 5.73235962 -25.79684204 5.73235962 -24.50561523 5.33178711 C-22.80350074 4.80379019 -21.10111096 4.27667987 -19.3984375 3.75048828 C-17.25856854 3.08090795 -15.1280973 2.38950717 -13 1.68359375 C-11.865625 1.31363281 -10.73125 0.94367187 -9.5625 0.5625 C-8.57378906 0.23378906 -7.58507812 -0.09492187 -6.56640625 -0.43359375 C-3.91949176 -1.01776818 -2.51948582 -0.91130338 0 0 Z " fill="#4993A6" transform="translate(102,37)"/>
<path d="M0 0 C0.66 2.31 1.32 4.62 2 7 C1.38511719 7.12117188 0.77023438 7.24234375 0.13671875 7.3671875 C-0.67152344 7.53476562 -1.47976562 7.70234375 -2.3125 7.875 C-3.51326172 8.11863281 -3.51326172 8.11863281 -4.73828125 8.3671875 C-7.25301118 8.94478999 -7.25301118 8.94478999 -10 11 C-10.33 11.99 -10.66 12.98 -11 14 C-7.23244038 15.25585321 -3.69172553 15.17683553 0.23510742 15.20532227 C1.49397514 15.22017166 1.49397514 15.22017166 2.77827454 15.23532104 C5.55397718 15.26692396 8.32969695 15.29168874 11.10546875 15.31640625 C13.02932685 15.33697682 14.95318043 15.35797332 16.87702942 15.37937927 C21.94209136 15.43458932 27.00719402 15.48400334 32.07232666 15.53222656 C37.24031195 15.58244935 42.40823808 15.63813136 47.57617188 15.69335938 C57.71739738 15.80092791 67.85867424 15.90237582 78 16 C78 16.33 78 16.66 78 17 C48.3 17 18.6 17 -12 17 C-12 20.96 -12 24.92 -12 29 C-12.33 29 -12.66 29 -13 29 C-13.0878954 25.64600151 -13.14068879 22.2923036 -13.1875 18.9375 C-13.21263672 17.99455078 -13.23777344 17.05160156 -13.26367188 16.08007812 C-13.32452388 10.25856984 -12.86648432 6.11525168 -10 1 C-6.78548731 -0.60725635 -3.56387464 -0.05748185 0 0 Z " fill="#9A7551" transform="translate(50,37)"/>
<path d="M0 0 C4.82856166 -0.38628493 8.11485977 -0.45837619 12.5 1.8125 C15 4 15 4 16 7 C16.08021999 8.40824893 16.10765977 9.81997231 16.09765625 11.23046875 C16.09443359 12.03291016 16.09121094 12.83535156 16.08789062 13.66210938 C16.07951172 14.49548828 16.07113281 15.32886719 16.0625 16.1875 C16.05798828 17.03248047 16.05347656 17.87746094 16.04882812 18.74804688 C16.03705403 20.83206155 16.0191189 22.91603977 16 25 C15.34 24.01 14.68 23.02 14 22 C8.87098659 13.98879637 8.87098659 13.98879637 2 8 C0.6250851 5.09740189 0 3.23861295 0 0 Z " fill="#71502F" transform="translate(136,37)"/>
<path d="M0 0 C0.33 1.32 0.66 2.64 1 4 C26.74 4 52.48 4 79 4 C79 4.33 79 4.66 79 5 C57.22 5.33 35.44 5.66 13 6 C13 6.33 13 6.66 13 7 C4.42 7 -4.16 7 -13 7 C-12 3 -12 3 -9.875 1.25 C-6.40721317 -0.2577334 -3.74329002 -0.22019353 0 0 Z " fill="#DFE8E8" transform="translate(52,44)"/>
<path d="M0 0 C2.53309233 4.64203897 4.46515599 8.65155992 5 14 C4.566875 13.505 4.13375 13.01 3.6875 12.5 C2.00259517 10.66781808 2.00259517 10.66781808 -1 11 C-1 10.34 -1 9.68 -1 9 C-2.7634375 9.495 -2.7634375 9.495 -4.5625 10 C-8.5011676 10.9969533 -11.95139129 11.16869203 -16 11 C-15.01 8.69 -14.02 6.38 -13 4 C-13.53109375 4.22816406 -14.0621875 4.45632812 -14.609375 4.69140625 C-15.31578125 4.97886719 -16.0221875 5.26632813 -16.75 5.5625 C-17.44609375 5.85253906 -18.1421875 6.14257812 -18.859375 6.44140625 C-21.32267287 7.08420113 -22.59358157 6.6897518 -25 6 C-21.77429922 4.98857805 -18.54394135 3.99291347 -15.3125 3 C-14.40048828 2.71382812 -13.48847656 2.42765625 -12.54882812 2.1328125 C-11.66259766 1.86210937 -10.77636719 1.59140625 -9.86328125 1.3125 C-9.05157471 1.06113281 -8.23986816 0.80976563 -7.40356445 0.55078125 C-4.86033295 -0.03200496 -2.60022093 -0.09712888 0 0 Z " fill="#61A4B7" transform="translate(127,9)"/>
<path d="M0 0 C1 1 1 1 1.1875 3.9375 C1 7 1 7 -1 9 C-4.625 9.125 -4.625 9.125 -8 9 C-8 9.66 -8 10.32 -8 11 C-10.31 11 -12.62 11 -15 11 C-16.32904884 4.59640103 -16.32904884 4.59640103 -15 2.1875 C-10.03398458 -0.76107166 -5.56271572 -1.45690174 0 0 Z " fill="#9B4954" transform="translate(130,35)"/>
<path d="M0 0 C37.62 0 75.24 0 114 0 C114 10.125 114 10.125 111 14 C110.01 13.67 109.02 13.34 108 13 C108.66 12.34 109.32 11.68 110 11 C110 10.01 110 9.02 110 8 C109.01 7.01 109.01 7.01 108 6 C109.65 6 111.3 6 113 6 C113 4.35 113 2.7 113 1 C75.71 1 38.42 1 0 1 C0 0.67 0 0.34 0 0 Z " fill="#BB9165" transform="translate(38,122)"/>
<path d="M0 0 C7.14893617 -0.56737589 7.14893617 -0.56737589 11 2 C11.328125 3.875 11.328125 3.875 11.25 6 C11.23453125 6.70125 11.2190625 7.4025 11.203125 8.125 C11 10 11 10 10 12 C6.2165072 12.9458732 3.78226282 13.26630224 0.0625 12 C-2 10 -2 10 -2.4375 6.5 C-2 3 -2 3 0 0 Z " fill="#E4C099" transform="translate(125,89)"/>
<path d="M0 0 C-0.99 0.33 -1.98 0.66 -3 1 C-3.73323796 3.01508358 -3.73323796 3.01508358 -4 5 C-2.35 4.67 -0.7 4.34 1 4 C0.67 4.66 0.34 5.32 0 6 C5.445 6.495 5.445 6.495 11 7 C11 7.33 11 7.66 11 8 C-0.88 8 -12.76 8 -25 8 C-25 7.34 -25 6.68 -25 6 C-22.10538781 5.0170943 -19.20941921 4.03856299 -16.3125 3.0625 C-15.49587891 2.78470703 -14.67925781 2.50691406 -13.83789062 2.22070312 C-2.90572034 -1.45286017 -2.90572034 -1.45286017 0 0 Z " fill="#4A92A5" transform="translate(107,40)"/>
<path d="M0 0 C0.33 0 0.66 0 1 0 C1 12.21 1 24.42 1 37 C1.99 37.33 2.98 37.66 4 38 C4.05790353 41.29159316 4.09356261 44.58305603 4.125 47.875 C4.14175781 48.81214844 4.15851563 49.74929687 4.17578125 50.71484375 C4.18222656 51.61074219 4.18867188 52.50664063 4.1953125 53.4296875 C4.20578613 54.25710449 4.21625977 55.08452148 4.22705078 55.93701172 C4 58 4 58 2 60 C1.62995706 62.22658154 1.62995706 62.22658154 1.5859375 64.7890625 C1.54726562 65.73007813 1.50859375 66.67109375 1.46875 67.640625 C1.4378125 68.62546875 1.406875 69.6103125 1.375 70.625 C1.33632812 71.61757812 1.29765625 72.61015625 1.2578125 73.6328125 C1.1633686 76.08835385 1.07780125 78.5438841 1 81 C0.67 81 0.34 81 0 81 C-0.02886751 76.85418113 -0.04675327 72.70838784 -0.0625 68.5625 C-0.07087891 67.37849609 -0.07925781 66.19449219 -0.08789062 64.97460938 C-0.09111328 63.84990234 -0.09433594 62.72519531 -0.09765625 61.56640625 C-0.10289307 60.52427979 -0.10812988 59.48215332 -0.11352539 58.40844727 C0 56 0 56 1 55 C1.09975032 52.48863896 1.13882183 50.01096585 1.125 47.5 C1.12886719 46.79746094 1.13273438 46.09492187 1.13671875 45.37109375 C1.44390931 41.89571192 1.44390931 41.89571192 0 39 C-0.08865208 36.1156618 -0.11521296 33.25537842 -0.09765625 30.37109375 C-0.0962413 29.50686295 -0.09482635 28.64263214 -0.09336853 27.75221252 C-0.08775239 24.98060708 -0.07519719 22.2090812 -0.0625 19.4375 C-0.05748708 17.5631522 -0.05292381 15.68880315 -0.04882812 13.81445312 C-0.03777772 9.20960456 -0.0205023 4.60481579 0 0 Z " fill="#E6D5C1" transform="translate(152,47)"/>
<path d="M0 0 C0.33 0 0.66 0 1 0 C2.31313131 9.27272727 2.31313131 9.27272727 1 14 C0.814375 14.928125 0.62875 15.85625 0.4375 16.8125 C0.293125 17.534375 0.14875 18.25625 0 19 C-0.33 19 -0.66 19 -1 19 C-1.33 17.02 -1.66 15.04 -2 13 C-3.9914056 12.61866701 -5.99279077 12.28674418 -8 12 C-8.33 12.33 -8.66 12.66 -9 13 C-10.99958364 13.04080783 -13.00045254 13.04254356 -15 13 C-14.3125 10.5625 -14.3125 10.5625 -13 8 C-10.4375 7.3125 -10.4375 7.3125 -8 7 C-7.67 6.34 -7.34 5.68 -7 5 C-4.67843403 4.59270772 -2.3431213 4.25561323 0 4 C0 2.68 0 1.36 0 0 Z " fill="#589DB0" transform="translate(132,23)"/>
<path d="M0 0 C0.66 2.31 1.32 4.62 2 7 C1.40832031 7.10957031 0.81664062 7.21914063 0.20703125 7.33203125 C-4.41345763 8.25914403 -8.0876779 9.22351335 -12 12 C-13.39864092 8.82127065 -12.89282517 7.69888978 -11.6875 4.3125 C-8.85453246 -1.24851035 -5.71698915 -0.0922095 0 0 Z " fill="#6E4A26" transform="translate(50,37)"/>
<path d="M0 0 C-2.48053373 2.9917248 -4.77876671 3.7421867 -8.5 4.6875 C-9.4590625 4.93886719 -10.418125 5.19023438 -11.40625 5.44921875 C-14 6 -14 6 -17 6 C-17 4.35 -17 2.7 -17 1 C-16.67 1.66 -16.34 2.32 -16 3 C-15.34 3 -14.68 3 -14 3 C-14.33 1.68 -14.66 0.36 -15 -1 C-9.82993781 -4.27437272 -5.2857582 -1.90903112 0 0 Z M-9 -2 C-8 0 -8 0 -8 0 Z " fill="#4C95AA" transform="translate(67,34)"/>
<path d="M0 0 C5.56818182 0.56818182 5.56818182 0.56818182 7 2 C7.1875 4.9375 7.1875 4.9375 7 8 C5 10 5 10 2.375 10.125 C1.59125 10.08375 0.8075 10.0425 0 10 C-0.38922918 8.71254964 -0.76098036 7.41980403 -1.125 6.125 C-1.43824219 5.04605469 -1.43824219 5.04605469 -1.7578125 3.9453125 C-1.83773437 3.30335937 -1.91765625 2.66140625 -2 2 C-1.34 1.34 -0.68 0.68 0 0 Z " fill="#DCAC57" transform="translate(124,34)"/>
<path d="M0 0 C-0.66 0 -1.32 0 -2 0 C-2 1.32 -2 2.64 -2 4 C-2.66 3.67 -3.32 3.34 -4 3 C-3.67 2.34 -3.34 1.68 -3 1 C-3.66 1 -4.32 1 -5 1 C-5 3.31 -5 5.62 -5 8 C-5.66 8 -6.32 8 -7 8 C-7 8.66 -7 9.32 -7 10 C-8.65 10 -10.3 10 -12 10 C-11.01 9.01 -10.02 8.02 -9 7 C-10.98 6.01 -12.96 5.02 -15 4 C-12.39457984 2.26305323 -10.41657225 1.30899552 -7.5 0.3125 C-6.33984375 -0.09548828 -6.33984375 -0.09548828 -5.15625 -0.51171875 C-3 -1 -3 -1 0 0 Z " fill="#6DACBD" transform="translate(81,23)"/>
<path d="M0 0 C0 5.28 0 10.56 0 16 C-0.66 15.01 -1.32 14.02 -2 13 C-2.86175198 11.92672708 -3.7369604 10.86412584 -4.625 9.8125 C-5.40875 8.884375 -6.1925 7.95625 -7 7 C-5.52694611 2.33532934 -5.52694611 2.33532934 -2.9375 0.6875 C-1 0 -1 0 0 0 Z " fill="#724A25" transform="translate(152,46)"/>
<path d="M0 0 C-0.33 1.32 -0.66 2.64 -1 4 C-3.64 4.33 -6.28 4.66 -9 5 C-9 6.32 -9 7.64 -9 9 C-10.65 8.67 -12.3 8.34 -14 8 C-13.5 5.6875 -13.5 5.6875 -12 3 C-8.02243341 0.75714307 -4.55670437 0 0 0 Z " fill="#6EAAB6" transform="translate(62,28)"/>
<path d="M0 0 C0.99 0.33 1.98 0.66 3 1 C2.34 1.66 1.68 2.32 1 3 C1.66 3.66 2.32 4.32 3 5 C0.525 6.485 0.525 6.485 -2 8 C-0.68 8.33 0.64 8.66 2 9 C-0.97 9.66 -3.94 10.32 -7 11 C-6.34 8.03 -5.68 5.06 -5 2 C-4.34 2 -3.68 2 -3 2 C-2.67 2.99 -2.34 3.98 -2 5 C-2 3.68 -2 2.36 -2 1 C-1.34 0.67 -0.68 0.34 0 0 Z " fill="#4A95AA" transform="translate(81,22)"/>
<path d="M0 0 C-0.66 1.98 -1.32 3.96 -2 6 C-0.68 6.66 0.64 7.32 2 8 C-5.75 9.125 -5.75 9.125 -8 8 C-8 6.02 -8 4.04 -8 2 C-2.25 0 -2.25 0 0 0 Z " fill="#4D99AC" transform="translate(114,13)"/>
<path d="M0 0 C-6.80176948 3.38370856 -13.60991913 5.32092229 -21 7 C-22.33423945 7.32968769 -23.66797965 7.66145801 -25 8 C-25 7.34 -25 6.68 -25 6 C-22.10538781 5.0170943 -19.20941921 4.03856299 -16.3125 3.0625 C-15.49587891 2.78470703 -14.67925781 2.50691406 -13.83789062 2.22070312 C-2.90572034 -1.45286017 -2.90572034 -1.45286017 0 0 Z " fill="#276E85" transform="translate(107,40)"/>
<path d="M0 0 C4.875 0.875 4.875 0.875 6 2 C6.04063832 3.66617115 6.042721 5.33388095 6 7 C5.67 6.34 5.34 5.68 5 5 C4.34 5 3.68 5 3 5 C3 5.66 3 6.32 3 7 C1.68 7 0.36 7 -1 7 C-0.67 4.69 -0.34 2.38 0 0 Z " fill="#C12731" transform="translate(118,37)"/>
<path d="M0 0 C1.65 0 3.3 0 5 0 C5.33 0.99 5.66 1.98 6 3 C6.66 3.33 7.32 3.66 8 4 C6.8125 5.5625 6.8125 5.5625 5 7 C2.3125 6.6875 2.3125 6.6875 0 6 C0 4.02 0 2.04 0 0 Z " fill="#734C21" transform="translate(139,38)"/>
<path d="M0 0 C-0.33 0.33 -0.66 0.66 -1 1 C2.63 1.33 6.26 1.66 10 2 C10 2.33 10 2.66 10 3 C2.41 3 -5.18 3 -13 3 C-4.2 -1.4 -4.2 -1.4 0 0 Z " fill="#337689" transform="translate(108,45)"/>
<path d="M0 0 C2.01822917 0.06510417 4.03645833 0.13020833 6.0546875 0.1953125 C6.7146875 2.5053125 7.3746875 4.8153125 8.0546875 7.1953125 C6.4046875 7.1953125 4.7546875 7.1953125 3.0546875 7.1953125 C2.3946875 5.5453125 1.7346875 3.8953125 1.0546875 2.1953125 C-0.5953125 2.1953125 -2.2453125 2.1953125 -3.9453125 2.1953125 C-1.9453125 0.1953125 -1.9453125 0.1953125 0 0 Z " fill="#766148" transform="translate(43.9453125,36.8046875)"/>
<path d="M0 0 C0.33 0 0.66 0 1 0 C1.27429625 5.39449293 1.36055646 8.51925805 -2 13 C-2.99 12.67 -3.98 12.34 -5 12 C-4.34 11.34 -3.68 10.68 -3 10 C-3 9.01 -3 8.02 -3 7 C-3.66 6.34 -4.32 5.68 -5 5 C-3.35 5 -1.7 5 0 5 C0 3.35 0 1.7 0 0 Z " fill="#B49675" transform="translate(151,123)"/>
<path d="M0 0 C0.99 0.495 0.99 0.495 2 1 C2 1.66 2 2.32 2 3 C2.99 3.33 3.98 3.66 5 4 C5 4.66 5 5.32 5 6 C3.68 6 2.36 6 1 6 C1 9.96 1 13.92 1 18 C0.67 18 0.34 18 0 18 C0 12.06 0 6.12 0 0 Z " fill="#9B7C5D" transform="translate(37,48)"/>
<path d="M0 0 C0.99 0.33 1.98 0.66 3 1 C3 2.98 3 4.96 3 7 C0.03 7 -2.94 7 -6 7 C-5.195625 6.21625 -4.39125 5.4325 -3.5625 4.625 C-1.01309583 2.28017144 -1.01309583 2.28017144 0 0 Z " fill="#144050" transform="translate(59,41)"/>
<path d="M0 0 C6.40141012 -0.51211281 9.98010898 -0.11888494 15 4 C14.67 4.66 14.34 5.32 14 6 C9.125 4.25 9.125 4.25 8 2 C5.67843403 1.59270772 3.3431213 1.25561323 1 1 C0.67 1.66 0.34 2.32 0 3 C0 2.01 0 1.02 0 0 Z " fill="#8B7864" transform="translate(136,37)"/>
<path d="M0 0 C0.66 0 1.32 0 2 0 C2 0.66 2 1.32 2 2 C3.32 2.66 4.64 3.32 6 4 C2.7 4.66 -0.6 5.32 -4 6 C-4 4.35 -4 2.7 -4 1 C-3.67 1.66 -3.34 2.32 -3 3 C-2.01 3 -1.02 3 0 3 C0 2.01 0 1.02 0 0 Z " fill="#4F93A3" transform="translate(54,34)"/>
<path d="M0 0 C0.66 0.33 1.32 0.66 2 1 C1.33333333 4.33333333 0.66666667 7.66666667 0 11 C-0.33 11 -0.66 11 -1 11 C-1.33 9.02 -1.66 7.04 -2 5 C-3.98 4.34 -5.96 3.68 -8 3 C-8 2.67 -8 2.34 -8 2 C-6.865625 1.855625 -5.73125 1.71125 -4.5625 1.5625 C-1.19222799 1.38828522 -1.19222799 1.38828522 0 0 Z " fill="#5595A1" transform="translate(132,31)"/>
<path d="M0 0 C2.99324263 1.0975223 3.84610901 1.67682892 5.25 4.625 C5.4975 5.40875 5.745 6.1925 6 7 C4.35 6.67 2.7 6.34 1 6 C0.67 4.02 0.34 2.04 0 0 Z " fill="#EBEAE2" transform="translate(139,46)"/>
<path d="M0 0 C-0.33 1.32 -0.66 2.64 -1 4 C-1.66 4 -2.32 4 -3 4 C-3 3.34 -3 2.68 -3 2 C-5.31 2.33 -7.62 2.66 -10 3 C-6.26223701 0.50815801 -4.5227786 0 0 0 Z " fill="#82BACA" transform="translate(62,28)"/>
<path d="M0 0 C2 3 2 3 1.625 5.1875 C1.41875 5.785625 1.2125 6.38375 1 7 C0.01 6.67 -0.98 6.34 -2 6 C-1.125 1.125 -1.125 1.125 0 0 Z " fill="#69A7BB" transform="translate(134,31)"/>
<path d="M0 0 C0.66 0.33 1.32 0.66 2 1 C1.67 2.32 1.34 3.64 1 5 C0.34 5 -0.32 5 -1 5 C-1 4.34 -1 3.68 -1 3 C-1.66 3 -2.32 3 -3 3 C-3.33 3.99 -3.66 4.98 -4 6 C-4.33 4.68 -4.66 3.36 -5 2 C-2.625 0.9375 -2.625 0.9375 0 0 Z " fill="#4B9DB4" transform="translate(57,31)"/>
<path d="M0 0 C0.33 1.98 0.66 3.96 1 6 C0.566875 5.505 0.13375 5.01 -0.3125 4.5 C-1.99740483 2.66781808 -1.99740483 2.66781808 -5 3 C-5.33 2.01 -5.66 1.02 -6 0 C-3 -1 -3 -1 0 0 Z " fill="#567D89" transform="translate(131,17)"/>
<path d="M0 0 C0.33 0.66 0.66 1.32 1 2 C1.66 2.28875 2.32 2.5775 3 2.875 C5 4 5 4 5.75 6.125 C5.8325 6.74375 5.915 7.3625 6 8 C2.83884224 6.63016497 2.0072908 6.0109362 0 3 C0 2.01 0 1.02 0 0 Z " fill="#C2A995" transform="translate(37,129)"/>
<path d="M0 0 C0.33 0 0.66 0 1 0 C1.04254356 1.99954746 1.04080783 4.00041636 1 6 C0 7 0 7 -2.5625 7.0625 C-3.7690625 7.0315625 -3.7690625 7.0315625 -5 7 C-4.01 6.67 -3.02 6.34 -2 6 C-2.33 4.68 -2.66 3.36 -3 2 C-2.01 2.33 -1.02 2.66 0 3 C0 2.01 0 1.02 0 0 Z " fill="#D9B35F" transform="translate(129,37)"/>
<path d="M0 0 C4.875 0.875 4.875 0.875 6 2 C6.04063832 3.66617115 6.042721 5.33388095 6 7 C5.566875 6.360625 5.13375 5.72125 4.6875 5.0625 C3.08760823 2.73253997 3.08760823 2.73253997 0 2 C0 1.34 0 0.68 0 0 Z " fill="#B5392A" transform="translate(118,37)"/>
</svg>
